<svg xmlns="http://www.w3.org/2000/svg" width="283" height="283" viewBox="0 0 283 283"><style>.a{fill:#000;}</style><path d="M236.7 0H46.8C21 0 0 21 0 46.8v190c0 25.8 21 46.8 46.8 46.8h190c25.8 0 46.8-21 46.8-46.8V46.8C283.5 21 262.5 0 236.7 0zM141.7 233.1c-50.3 0-91.3-41-91.3-91.3 0-50.4 41-91.3 91.3-91.3 50.3 0 91.3 40.9 91.3 91.3C232.9 192.2 192 233.1 141.7 233.1zM245 56.9c-8.2 0-14.8-6.6-14.8-14.8s6.6-14.8 14.8-14.8c8.2 0 14.8 6.6 14.8 14.8S253.1 56.9 245 56.9z" class="a"/><path d="M141.7 75.7c-36.4 0-66.1 29.7-66.1 66.1 0 36.4 29.7 66.1 66.1 66.1 36.5 0 66.2-29.7 66.1-66.1C207.7 105.4 178.1 75.7 141.7 75.7z" class="a"/></svg>
