<svg xmlns="http://www.w3.org/2000/svg" width="283" height="283" viewBox="0 0 283.5 283.5"><style>.a{fill:#000;}</style><path d="M932-121H693.1c-24.3 0-44.1 19.7-44.1 44.1v238.9C649 186.3 668.7 206 693.1 206h117.8l0.2-116.9h-30.4c-3.9 0-7.1-3.2-7.2-7.1l-0.1-37.7c0-4 3.2-7.2 7.2-7.2h30.3V0.7c0-42.2 25.8-65.2 63.5-65.2h30.9c4 0 7.2 3.2 7.2 7.2v31.8c0 4-3.2 7.2-7.2 7.2l-19 0c-20.5 0-24.5 9.7-24.5 24v31.5h45c4.3 0 7.6 3.7 7.1 8l-4.5 37.7c-0.4 3.6-3.5 6.3-7.1 6.3h-40.4l-0.2 116.9h70.1c24.3 0 44.1-19.7 44.1-44.1V-77C976-101.3 956.3-121 932-121" class="a"/><path d="M932-121H693.1c-24.3 0-44.1 19.7-44.1 44.1v238.9C649 186.3 668.7 206 693.1 206h117.8l0.2-116.9h-30.4c-3.9 0-7.1-3.2-7.2-7.1l-0.1-37.7c0-4 3.2-7.2 7.2-7.2h30.3V0.7c0-42.2 25.8-65.2 63.5-65.2h30.9c4 0 7.2 3.2 7.2 7.2v31.8c0 4-3.2 7.2-7.2 7.2l-19 0c-20.5 0-24.5 9.7-24.5 24v31.5h45c4.3 0 7.6 3.7 7.1 8l-4.5 37.7c-0.4 3.6-3.5 6.3-7.1 6.3h-40.4l-0.2 116.9h70.1c24.3 0 44.1-19.7 44.1-44.1V-77C976-101.3 956.3-121 932-121" class="a"/><path d="M932-121H693.1c-24.3 0-44.1 19.7-44.1 44.1v238.9C649 186.3 668.7 206 693.1 206h117.8l0.2-116.9h-30.4c-3.9 0-7.1-3.2-7.2-7.1l-0.1-37.7c0-4 3.2-7.2 7.2-7.2h30.3V0.7c0-42.2 25.8-65.2 63.5-65.2h30.9c4 0 7.2 3.2 7.2 7.2v31.8c0 4-3.2 7.2-7.2 7.2l-19 0c-20.5 0-24.5 9.7-24.5 24v31.5h45c4.3 0 7.6 3.7 7.1 8l-4.5 37.7c-0.4 3.6-3.5 6.3-7.1 6.3h-40.4l-0.2 116.9h70.1c24.3 0 44.1-19.7 44.1-44.1V-77C976-101.3 956.3-121 932-121" class="a"/><path d="M245.3 0H38.2C17.1 0 0 17.1 0 38.2v207.1c0 21.1 17.1 38.2 38.2 38.2h102.1l0.2-101.3H114.2c-3.4 0-6.2-2.8-6.2-6.2l-0.1-32.7c0-3.4 2.8-6.2 6.2-6.2h26.3v-31.5c0-36.6 22.4-56.5 55-56.5h26.8c3.4 0 6.2 2.8 6.2 6.2v27.5c0 3.4-2.8 6.2-6.2 6.2l-16.4 0c-17.8 0-21.2 8.4-21.2 20.8V137.1h39c3.7 0 6.6 3.2 6.2 6.9l-3.9 32.7c-0.4 3.1-3 5.5-6.2 5.5h-35l-0.2 101.3h60.8c21.1 0 38.2-17.1 38.2-38.2V38.2C283.5 17.1 266.4 0 245.3 0" class="a"/></svg>
