<svg xmlns="http://www.w3.org/2000/svg" width="283" height="283" viewBox="0 0 283.5 283.5"><path d="M239.8 0H43.7C19.6 0 0 19.6 0 43.7v196.1c0 24.1 19.6 43.7 43.7 43.7h196.1c24.1 0 43.7-19.6 43.7-43.7V43.7C283.5 19.6 263.9 0 239.8 0zM232.7 199.6h-23.8c-7.8 0-8.8-5.7-23-19.3 -12-11.9-17.2-12.8-20.1-12.8 -2.6 0-4.4 1.9-4.4 6.5v18.2c0 5.4-3.1 7.5-15.7 7.5 -20.8 0-43.8-12.8-61.3-36.5 -26.1-35.2-32.8-61.5-32.8-67.2 0-3.1 2.3-5.2 5.4-5.2h21.2c5.5 0 7.6 1.6 9.6 7.5 9.7 28.6 27.1 53.7 34.4 53.7 2.8 0 3.1-2.3 3.1-8.1v-29c0-14.1-7.9-15.2-7.9-20.4 0-2.1 1.6-3.6 4.2-3.6h34.1c4.5 0 5.2 1.6 5.2 7.1v39.4c0 4.5 0.9 6.2 2.9 6.2 2.5 0 4.8-1.5 9.2-6.5 14-15.4 25.5-39.9 25.5-39.9 1.5-3.1 3.2-5.2 8.1-5.2 7.1 0 21.3 0 21.3 0 4.2 0 6 2.3 5.2 6.3 -2.4 11.4-26.9 45.9-26.9 45.9 -2.3 3.6-3.2 5.5 0 8.9 2.3 2.9 9.4 9.2 13.8 15.1 10.7 11.4 17.7 20.9 17.7 26.3C237.4 198.4 235.1 199.6 232.7 199.6z" fill="#000"/></svg>
