<svg xmlns="http://www.w3.org/2000/svg" width="283" height="283" viewBox="0 0 283.5 283.5"><style>.a{fill:#000;}</style><path d="M141.7 275.6L141.7 275.6c-73.8 0-133.9-60.1-133.9-133.9 0-73.8 60.1-133.9 133.9-133.9 73.8 0 133.9 60.1 133.9 133.9C275.6 215.5 215.5 275.6 141.7 275.6M141.7 0C63.6 0 0 63.6 0 141.7c0 78.1 63.6 141.7 141.7 141.7 78.2 0 141.7-63.6 141.7-141.7C283.5 63.6 219.9 0 141.7 0z" class="a"/><path d="M40.2 102.6L40.2 102.6l-0.3 0.8 -8.9-3.6 0.4-1c0.4-1 1-2.3 2.3-2.9 1.1-0.5 2.5-0.4 4 0.2 1.8 0.7 2.5 1.8 2.8 2.5C41.1 100.2 40.6 101.6 40.2 102.6M39.4 91.9c-1.7-0.7-4.1-1.2-6.7-0.1 -2.8 1.3-4.1 3.8-4.7 5.4l-2.2 5.4 15.8 6.4 2.3-5.7c1.1-2.7 0.8-5.3 0-7C43.2 94 41.5 92.7 39.4 91.9z" class="a"/><polygon points="54.5 82.9 47.6 75.7 57.8 78.6 58.8 77.2 53.5 67.9 62.1 72.9 64.8 69.4 49.7 61.1 47 64.6 52 73 42.7 70.2 40 73.7 51.8 86.4 " class="a"/><rect x="61" y="51.8" transform="matrix(0.636 0.7717 -0.7717 0.636 67.0051 -33.9465)" width="17.1" height="4.4" class="a"/><polygon points="81.9 39.6 88.4 51.2 92.3 49 85.8 37.4 89 35.6 87.1 32.3 76.9 38 78.8 41.3 " class="a"/><path d="M106.1 28.5L106.1 28.5c0.9-0.3 1.7-0.3 2.2 0 0.5 0.2 0.8 0.7 1 1.2 0.2 0.5 0.1 1.1-0.1 1.5 -0.4 0.6-1.2 1.1-1.9 1.3l-0.8 0.2 -1.2-4L106.1 28.5zM109.3 41.8l-1.9-6.3 6 5 5.3-1.6 -7.2-5.1c0.7-0.4 1.5-1 1.9-1.8 0.6-1 0.7-2.4 0.3-3.8 -0.4-1.3-1.3-2.6-2.5-3.2 -1.6-0.9-3.2-0.6-4.4-0.2l-6.6 2 5 16.3L109.3 41.8z" class="a"/><polygon points="131.5 37.1 135.9 36.7 135.3 28.6 141 19.2 135.6 19.6 132.9 24.5 129.3 20.1 124 20.5 130.9 28.9 " class="a"/><polygon points="177.4 38.7 172.2 37.2 175.9 24.4 171.7 23.2 166.9 39.6 176.3 42.3 " class="a"/><polygon points="192.2 49.5 196 42.2 205.7 37.3 201 34.8 196.1 37.5 195.4 31.9 190.7 29.4 192 40.2 188.3 47.4 " class="a"/><path d="M217.8 53L217.8 53l-2.1 5.4 -2.9-2.5L217.8 53zM206.9 59.1l2.7-1.4 4.7 4 -1.1 2.9 3.6 3.1 6.2-17.1 -3.7-3.1L203.4 56.1 206.9 59.1z" class="a"/><path d="M225.9 79.4c1.1 1.5 2.3 2.7 4.4 3 1.7 0.3 3.2-0.3 4.4-1.2 1-0.7 1.6-1.4 1.8-2.7 0.3-1.3-0.1-2.4-0.5-3.5l-0.5-1.3c-0.4-1-0.3-1.5-0.3-1.7 0.1-0.3 0.2-0.5 0.5-0.6 0.3-0.2 0.6-0.2 1-0.2 0.6 0.1 1 0.5 1.3 0.9 0.3 0.5 0.9 1.3 0.8 3l3.8-0.6c-0.3-1.8-1-3.7-2-5.1 -1.2-1.7-2.7-2.4-3.9-2.6 -1-0.2-2.6-0.1-4.2 1.2 -0.7 0.5-1.6 1.3-1.9 2.6 -0.2 1 0.1 2.1 0.3 2.8l0.4 1.1c0.4 1.1 0.6 1.7 0.6 2.3 0 0.5-0.3 0.8-0.5 1 -0.4 0.3-0.8 0.3-1.1 0.3 -0.4 0-1-0.3-1.5-1 -0.9-1.2-1.1-2.9-0.9-4.2l-4 0.6c0 1.5 0.4 2.6 0.4 2.9C224.7 77.7 225.3 78.6 225.9 79.4" class="a"/><polygon points="255.7 97.5 249.8 100 247.3 94.1 253.2 91.6 251.5 87.5 235.7 94.1 237.4 98.2 243.8 95.5 246.3 101.4 239.9 104.1 241.6 108.2 257.4 101.6 " class="a"/><polygon points="69.4 224.1 72 221.4 65.1 214.6 53.1 226.8 60.1 233.6 62.7 230.9 58.9 227.2 61 225.1 64.6 228.6 67.2 225.9 63.6 222.4 65.6 220.4 " class="a"/><path d="M86 231.2c-1.8-1.1-3.4-1.2-4.6-1 -1 0.2-2.4 0.9-3.5 2.6 -0.5 0.7-1 1.8-0.8 3.1 0.2 1 0.9 1.9 1.3 2.5l0.8 0.9c0.8 0.9 1.2 1.4 1.4 1.9 0.1 0.5 0 0.8-0.1 1.1 -0.2 0.4-0.6 0.6-0.9 0.7 -0.4 0.1-1 0.1-1.8-0.4 -1.3-0.8-2.1-2.3-2.4-3.6l-3.5 2c0.6 1.4 1.3 2.3 1.5 2.5 0.8 1.1 1.6 1.7 2.5 2.3 1.5 1 3.2 1.7 5.2 1.2 1.7-0.4 2.8-1.5 3.7-2.8 0.6-1 0.9-1.9 0.7-3.2 -0.2-1.3-1-2.2-1.7-3.1l-0.9-1.1c-0.7-0.8-0.8-1.2-0.8-1.4 0-0.3 0.1-0.5 0.2-0.8 0.2-0.3 0.5-0.5 0.9-0.5 0.6-0.1 1.1 0.1 1.5 0.3 0.5 0.3 1.3 0.9 1.9 2.5l3.3-2C88.8 233.6 87.4 232.1 86 231.2" class="a"/><polygon points="98.2 242.5 101.6 243.8 97 256.3 101.1 257.8 105.8 245.3 109.2 246.6 110.5 243.1 99.5 239 " class="a"/><path d="M120.8 258c-0.6-0.1-1.3 0-2 0.4 -0.4 0.3-0.9 0.8-1.1 1.7 -0.2 0.9 0.2 1.6 0.4 2 0.5 0.7 1.1 1 1.7 1.1 0.7 0.1 1.4 0 2-0.4 0.5-0.4 0.9-0.9 1.1-1.7 0.2-0.8-0.1-1.4-0.4-1.9C122.1 258.5 121.4 258.1 120.8 258" class="a"/><path d="M161.1 259.4l2.4-3.1c1.3-1.7 2.1-3.3 1.7-5.4 -0.3-2.2-1.5-3.3-2.3-3.9 -0.9-0.6-2.5-1.4-5-1 -2.1 0.3-3.5 1.3-4.5 2.6 -0.8 1-1.5 2.8-1.1 5l4.5-0.7c-0.1-0.6 0-1.6 0.3-2.2 0.2-0.4 0.7-0.8 1.4-0.9 0.6-0.1 1 0.1 1.3 0.3 0.6 0.5 0.7 1.4 0.8 1.5 0.2 1.1-0.2 2-0.5 2.8 -0.6 1.4-1.5 3-2.8 4.8l-3.6 5.1 13.5-2.1 -0.6-3.7L161.1 259.4z" class="a"/><path d="M186.8 251.8L186.8 251.8c-0.2 0.4-0.6 0.8-1.1 1 -0.5 0.2-1 0.2-1.5 0 -1.3-0.4-2.5-2.3-3-3.6 -0.6-1.5-0.8-3.6-0.3-4.7 0.2-0.4 0.6-0.8 1.1-1 0.5-0.2 1-0.2 1.5 0 1.1 0.4 2.5 2.2 3 3.6C187.1 248.4 187.4 250.6 186.8 251.8M185.7 239.9c-1.7-0.7-3.6-0.7-5.1-0.1 -1.5 0.6-2.9 1.9-3.6 3.6 -0.9 2-0.9 4.6 0.3 7.4 1.1 2.8 3 4.7 4.9 5.5 1.7 0.7 3.6 0.7 5.1 0 1.5-0.6 2.9-1.8 3.6-3.6 0.9-2 0.9-4.6-0.2-7.4C189.5 242.6 187.6 240.7 185.7 239.9z" class="a"/><path d="M210 238.9L210 238.9c-0.1 0.4-0.4 0.9-0.8 1.2 -0.4 0.3-1 0.4-1.4 0.3 -1.3-0.1-3-1.7-3.8-2.8 -0.9-1.3-1.6-3.3-1.3-4.5 0.1-0.4 0.4-0.9 0.8-1.2 0.4-0.3 1-0.4 1.4-0.3 1.2 0.1 2.9 1.6 3.8 2.8C209.6 235.6 210.4 237.7 210 238.9M206.3 227.6c-1.8-0.3-3.6 0.1-5 1.1 -1.4 0.9-2.4 2.4-2.8 4.3 -0.4 2.1 0.2 4.7 1.9 7.2 1.7 2.5 3.9 3.9 6 4.3 1.8 0.3 3.6-0.1 5-1.1s2.4-2.4 2.8-4.3c0.4-2.1-0.2-4.7-1.9-7.2C210.6 229.4 208.4 228 206.3 227.6z" class="a"/><path d="M229.6 222.9L229.6 222.9c-0.4 0.4-0.9 0.6-1.4 0.7 -0.6 0-1.1-0.2-1.5-0.5 -0.4-0.3-0.6-0.8-0.6-1.4 0-0.6 0.2-1.1 0.5-1.5 0.3-0.3 0.8-0.6 1.4-0.7 0.6 0 1 0.1 1.5 0.5 0.4 0.4 0.6 0.9 0.7 1.4C230.2 221.9 230 222.4 229.6 222.9M224 217.7L224 217.7c-0.3 0.3-0.8 0.6-1.3 0.6 -0.5 0-0.9-0.1-1.3-0.4 -0.3-0.3-0.6-0.8-0.6-1.3 0-0.4 0.1-1 0.5-1.4 0.3-0.4 0.7-0.5 1.2-0.6 0.5 0 1.1 0.2 1.4 0.5 0.3 0.3 0.5 0.8 0.6 1.3C224.5 217 224.2 217.4 224 217.7zM232.9 217c-0.6-0.6-1.6-1.2-3.1-1.1 -0.8 0-1.6 0.3-2.4 0.7 0.3-0.6 0.4-1.4 0.4-2 0-0.8-0.4-1.7-1.3-2.6 -1.1-1-2.2-1.2-3.2-1.2 -1.4 0-2.9 0.8-4.2 2.1 -1.3 1.4-1.9 3-1.9 4.4 0 1.2 0.5 2.4 1.4 3.2 1 0.9 2 1 2.8 1 0.5 0 1.2-0.2 1.8-0.5 -0.3 0.7-0.6 1.7-0.5 2.4 0 1 0.6 2.2 1.4 3 0.8 0.7 2 1.2 3.4 1.2 0.9 0 2.8-0.4 4.8-2.6 2.1-2.2 2.2-4.2 2.1-5C234.3 218.9 233.7 217.8 232.9 217z" class="a"/><path d="M172.6 109.1L172.6 109.1c2.5-3.8 6.2-8.1 8.8-10.9l0.1-0.1c4.1-4.4 8.3-6.7 12.2-6.7 3.7 0 7.1 2.4 8.8 6.2 2.6 5.9-3.9 10.5-4.1 10.7 -3.9 2.6-8.7 4-13.7 4 -4.1 0-8-1-11.6-2.9L172.6 109.1zM187.8 151.5L187.8 151.5c0 0 0 0 0 0l0.9-1.4c0.8-1.1 1.8-1.8 2.3-1.4 0.5 0.3 0.3 1.5-0.4 2.7h0l-0.9 1.4c-0.8 1.1-1.8 1.8-2.3 1.4C186.9 153.8 187.1 152.6 187.8 151.5zM218 186.2L218 186.2l-0.2-0.2 -1.3 1.7c-0.1 0.1-10.7 13.5-31.1 13.5 -7.5 0-15.5-1.8-23.7-5.4 6.4-9.2 11.8-17 11.8-17l16.5-23.8c0.2-0.2 2-2.9 2.1-3.1 0.1-0.1 0.1-0.1 0.1-0.2l0.3-0.4 0 0c1.2-2.1 1.3-4.2 0.2-4.9 -1.1-0.7-3 0.2-4.5 2.1l0 0 -0.2 0.4c0 0.1-0.1 0.1-0.2 0.2 -0.2 0.3-1.9 2.9-2.1 3.2l-15.3 24.6c0 0-5.3 8.2-11.5 17.8 -4.4-2.1-8.9-4.7-13.5-7.8 -5.8-3.9-11.3-7.4-16.3-10.4 3.9-5.9 12.5-19.2 20.2-31.1 7.7-12 15.7-24.3 19.2-29.7 4.7 2.3 9.5 3.6 14.5 4 2.7 0.4 5.2 0.4 7.1-0.1 0.3 0 0.6-0.1 0.8-0.1 2.4-0.3 3.9-0.8 4.1-0.9l0.2 0c0.2 0 0.3-0.1 0.4-0.1 1.8-0.5 3.4-1.2 5-2.1l0.1 0c7.2-4 11.6-10.9 11.4-18.1 -0.2-9.1-7-16-18.1-18.7 -3.6-0.9-7.4-0.7-11.1 0.4 -1.7 0.2-10.5 1.9-24 20.1l-0.8 1 -0.4 0.7c-0.1 0.2-0.3 0.4-0.4 0.6 -5-2.9-10.5-6.4-16.4-10.4C125.7 81.7 111.1 76.5 97.6 76.5c-4.8 0-9.5 0.7-14 2 -1.7 0.5-3.4 1.1-5 1.8 0.4-0.4 0.8-0.8 1.2-1.2 16.6-16.4 38.6-25.5 62-25.5 0.3 0 0.6 0 0.9 0 23.6 0.2 45.6 9.7 62.1 26.5 16.5 16.8 25.4 39.1 25.2 62.6C229.8 158.1 225.7 173.1 218 186.2zM110.3 174.5L110.3 174.5c-2.6 3.9-6.3 8.2-8.9 11 -4.1 4.4-8.3 6.7-12.1 6.7 -3.7 0-7.1-2.4-8.8-6.2 -2.6-5.9 3.9-10.5 4.1-10.7 3.9-2.6 8.7-4 13.7-4 4.1 0 8 1 11.6 2.9L110.3 174.5zM203.8 204.4L203.8 204.4c-16.8 16.7-39.2 25.8-62.9 25.5 -48.6-0.5-87.8-40.5-87.2-89.1 0.2-15.9 4.6-31.4 12.7-44.8l0.1-0.2c0.1-0.1 10.6-13.5 31.1-13.5 12.4 0 25.8 4.8 40 14.4 5.8 3.9 11.3 7.4 16.3 10.4 -3.8 5.7-12.1 18.6-20.1 31.1 -7.7 12-15.7 24.4-19.3 29.8 -4.7-2.3-9.5-3.6-14.5-4 -2.7-0.4-5.2-0.4-7.1 0.1 -0.3 0-0.6 0.1-0.8 0.1 -2.4 0.3-3.8 0.8-4.1 0.9l-0.1 0c-0.2 0-0.3 0.1-0.5 0.1 -1.8 0.5-3.4 1.2-5 2.1 -7.3 3.9-11.7 10.9-11.5 18.2 0.2 9.1 7 16 18.1 18.7 3.6 0.9 7.4 0.7 11.1-0.4 1.7-0.2 10.5-1.9 24.2-20.2l0.1-0.1c0.6-0.7 0.7-0.8 0.7-0.9l0.3-0.5c0.1-0.2 0.3-0.4 0.4-0.6 5 2.9 10.5 6.4 16.4 10.4 4.6 3.1 9.1 5.7 13.6 7.9 -5.1 8.1-10.2 16.3-12.9 20.9 -0.3 0.6-1.3 2.3-1 2.4 0.3 0.2 1.4-1.3 1.8-1.8 3.3-4.3 9-12.4 14.6-20.4 9.4 4.2 18.5 6.3 27.1 6.3 4.8 0 9.5-0.7 14-2 2-0.6 4-1.3 5.8-2.1C204.7 203.5 204.2 204 203.8 204.4zM142.8 47.1c-0.3 0-0.7 0-1 0 -25.1 0-48.7 9.7-66.5 27.4 -17.8 17.7-27.8 41.2-28.1 66.3 -0.5 52.2 41.5 95.1 93.6 95.6 0.3 0 0.7 0 1 0 25.1 0 48.7-9.7 66.5-27.4 17.8-17.7 27.8-41.2 28.1-66.3 0.3-25.3-9.3-49.1-27-67.2C191.7 57.5 168.1 47.4 142.8 47.1z" class="a"/></svg>
