<svg xmlns="http://www.w3.org/2000/svg" width="283" height="283" viewBox="0 0 283.5 283.5"><path d="M188.6 92.9L188.6 92.9c3.7-5.5 8.9-11.5 12.7-15.5l0.2-0.2c6-6.4 12.1-9.8 17.7-9.8 5.3 0 10.1 3.4 12.6 8.8 3.7 8.3-5.6 15-5.9 15.2 -5.7 3.8-12.8 5.9-20.1 5.9 -6 0-11.7-1.4-16.9-4.3L188.6 92.9zM210.4 156.3L210.4 156.3c0 0 0 0 0 0l1.4-2.1c1.1-1.7 2.7-2.6 3.4-2.1 0.8 0.5 0.5 2.3-0.6 4l0 0 -1.4 2.1c-1.1 1.7-2.7 2.6-3.5 2.1C209 159.8 209.3 158 210.4 156.3zM255.1 207.1L255.1 207.1l-0.2-0.2 -2.3 3.1c-0.2 0.2-15.8 19.9-45.9 19.9 -11.1 0-22.8-2.7-35-7.9 9.4-13.5 17.2-24.9 17.2-24.9l24.7-35.5c0.3-0.3 2.9-4.3 3.2-4.7 0.1-0.1 0.1-0.2 0.2-0.3l0.4-0.6 -0.1 0c1.7-3.1 1.9-6.3 0.2-7.3s-4.5 0.3-6.7 3.1l0 0 -0.4 0.6c-0.1 0.1-0.2 0.2-0.2 0.3 -0.2 0.4-2.9 4.4-3.1 4.8L184.3 194.1c0 0-7.8 12-16.8 26 -6.6-3.1-13.3-7-20.1-11.6 -8.5-5.8-16.5-10.8-23.8-15.1 5.8-8.8 17.9-27.6 29.7-45.9 11.3-17.5 22.9-35.6 28.4-43.9 6.9 3.3 14 5.2 21.3 5.8 4.1 0.7 7.9 0.6 10.8-0.1 0.5-0.1 0.9-0.1 1.2-0.2 3.6-0.5 5.9-1.2 6.2-1.3l0.2-0.1c0.2-0.1 0.5-0.1 0.7-0.2 2.7-0.8 5.2-1.8 7.6-3.1l0.2-0.1c11-6 17.6-16.6 17.3-27.6 -0.4-13.8-10.7-24.4-27.5-28.5 -5.5-1.3-11.1-1.1-16.7 0.5 -2.8 0.3-16.1 3.2-36.2 30.1l-1.2 1.5 -0.6 1c-0.1 0.1-0.2 0.3-0.3 0.4 -7.3-4.3-15.3-9.4-23.9-15.2C118 51.6 96.2 43.8 75.8 43.8c-7.2 0-14.3 1-21 3 -1.6 0.5-3.2 1-4.8 1.6 24.6-24.2 57.2-37.5 91.7-37.5l1.4 0c35 0.4 67.7 14.3 92.1 39.3 24.5 25 37.7 58 37.4 92.9C272.4 165.7 266.3 187.8 255.1 207.1zM93.9 190.8L93.9 190.8c-3.8 5.6-9.1 11.8-12.9 15.7 -6 6.4-12.1 9.8-17.7 9.8 -5.3 0-10.1-3.4-12.6-8.8 -3.7-8.3 5.6-15 5.9-15.2 5.7-3.8 12.8-5.9 20.1-5.9 6 0 11.7 1.4 16.9 4.3L93.9 190.8zM141.8 272.6L141.8 272.6l-1.4 0C68.2 271.8 10.1 212.5 10.9 140.4c0.2-23.6 6.8-46.5 18.9-66.4l0.2-0.2c0.2-0.2 15.7-19.9 45.9-19.9 18.3 0 38.2 7.2 59.2 21.4 8.5 5.7 16.5 10.8 23.8 15.1 -5.8 8.8-17.9 27.6-29.6 45.8 -10.8 16.8-22.9 35.5-28.5 44 -6.9-3.3-14-5.2-21.3-5.8 -4.1-0.7-7.9-0.6-10.8 0.1 -0.5 0.1-0.9 0.1-1.2 0.2 -3.6 0.5-5.8 1.2-6.3 1.3l-0.1 0c-0.2 0.1-0.5 0.1-0.7 0.2 -2.7 0.8-5.2 1.9-7.6 3.2 -11.1 6-17.8 16.6-17.5 27.7 0.4 13.8 10.7 24.4 27.5 28.5 5.5 1.3 11.2 1.1 16.8-0.5 2.8-0.3 16.1-3.2 36.4-30.4l0.2-0.2c0.7-0.8 1-1.3 1.1-1.4l0.4-0.7c0.1-0.1 0.2-0.3 0.3-0.4 7.3 4.3 15.3 9.4 23.9 15.2 6.8 4.6 13.6 8.6 20.3 11.8 -7.5 11.9-15 23.9-18.9 30.7 -0.5 0.8-2 3.4-1.5 3.6 0.5 0.3 2.1-2 2.7-2.7 4.8-6.3 13.2-18.1 21.5-29.8 14.1 6.3 27.8 9.6 40.8 9.6 7.2 0 14.3-1 21-3 2-0.6 4-1.3 6-2C209 259.2 176.4 272.6 141.8 272.6zM143.2 0L141.7 0c-37.5 0-72.9 14.5-99.6 41 -26.7 26.4-41.7 61.7-42.1 99.3 -0.8 78.2 62.1 142.4 140.2 143.2l1.5 0c37.5 0 72.9-14.5 99.6-41 26.7-26.4 41.7-61.7 42.1-99.3 0.4-37.9-14-73.6-40.5-100.7C216.5 15.5 181.1 0.4 143.2 0z" fill="#000"/></svg>
